<svg width="1024" height="1024" viewBox="0 0 1024 1024" fill="none" xmlns="http://www.w3.org/2000/svg">
  <defs>
    <linearGradient id="bgB" x1="128" y1="112" x2="912" y2="928" gradientUnits="userSpaceOnUse">
      <stop stop-color="#F3EFE6"/>
      <stop offset="1" stop-color="#E7E0D2"/>
    </linearGradient>
    <linearGradient id="accentB" x1="218" y1="218" x2="806" y2="806" gradientUnits="userSpaceOnUse">
      <stop stop-color="#25C7A8"/>
      <stop offset="1" stop-color="#117C6D"/>
    </linearGradient>
  </defs>

  <rect x="104" y="104" width="816" height="816" rx="214" fill="url(#bgB)"/>
  <rect x="134" y="134" width="756" height="756" rx="184" stroke="#D6CDBD" stroke-width="18"/>

  <path d="M294 784L730 240" stroke="url(#accentB)" stroke-width="72" stroke-linecap="round"/>
  <circle cx="770" cy="286" r="58" fill="#FF7A45"/>
  <circle cx="770" cy="286" r="18" fill="#FFF6F1"/>

  <path d="M308 308H516C600 308 654 356 654 430C654 507 596 552 509 552H404V744H308V308Z" fill="#10161B"/>
  <path d="M458 418H520C553 418 570 433 570 459C570 487 550 502 516 502H458V418Z" fill="#F3EFE6"/>

  <path d="M610 308H724V384H686V744H590V384H552V308H610Z" fill="#10161B"/>
</svg>
